<svg xmlns="http://www.w3.org/2000/svg" width="27" height="24" viewBox="0 0 27 24"><g transform="translate(-2.011 -4)"><path d="M12.842,13.12a11.521,11.521,0,0,0-7.117,6.64l6.653,3.84c1.547-3.76,3.559-4.56,5.88-5.52s4.874-2,6.885-6l-6.576-4A9.219,9.219,0,0,1,12.842,13.12Zm5.183,2.48c0,1.12-1.238,2-2.708,2s-2.708-.88-2.708-2,1.238-2,2.708-2S18.026,14.48,18.026,15.6ZM17.175,4,15.86,6.64C14.467,9.44,13,10,10.986,10.88a12.927,12.927,0,0,0-7.891,7.44L2.011,20.64,13.926,28l1.238-2.96c1.315-3.12,2.785-3.76,5.029-4.64a12.8,12.8,0,0,0,7.659-6.72l1.16-2.32Zm9.284,8.96c-1.934,3.92-4.564,5.04-6.885,6s-4.332,1.76-5.88,5.52l-.542,1.28L3.946,20l.464-.96a11.521,11.521,0,0,1,7.117-6.64,9.2,9.2,0,0,0,5.648-4.96l.619-1.2L27,11.92Z" fill="#fff"/></g></svg>