<svg xmlns="http://www.w3.org/2000/svg" width="82.001" height="30.001" viewBox="0 0 82.001 30.001"><g transform="translate(-960.999 -60)"><g transform="translate(1001.422 25.492)"><path d="M39.922,34.508H13.233a1.656,1.656,0,0,0-1.656,1.656V62.852a1.656,1.656,0,0,0,1.656,1.656H27.6V52.89h-3.91V48.363H27.6V45.024c0-3.875,2.367-5.985,5.823-5.985a32.056,32.056,0,0,1,3.494.178v4.049h-2.4c-1.88,0-2.244.893-2.244,2.2v2.891h4.483l-.584,4.528h-3.9V64.508h7.645a1.656,1.656,0,0,0,1.656-1.656V36.164A1.656,1.656,0,0,0,39.922,34.508Z" fill="#fff"/></g><g transform="translate(441.497 -137.344)"><path d="M556.5,200.9a15.2,15.2,0,0,1-4.359,1.192,7.6,7.6,0,0,0,3.337-4.191,15.2,15.2,0,0,1-4.82,1.838,7.591,7.591,0,0,0-12.935,6.907,21.561,21.561,0,0,1-15.646-7.912,7.569,7.569,0,0,0,2.349,10.111,7.561,7.561,0,0,1-3.439-.948v.1a7.583,7.583,0,0,0,6.089,7.427,7.66,7.66,0,0,1-3.428.13,7.6,7.6,0,0,0,7.092,5.259,15.253,15.253,0,0,1-9.428,3.242,15.412,15.412,0,0,1-1.812-.105,21.523,21.523,0,0,0,11.637,3.4c13.962,0,21.6-11.54,21.6-21.548q0-.492-.022-.98A15.42,15.42,0,0,0,556.5,200.9Z" fill="#fff"/></g></g></svg>